# xmcd
#
# Track frame offsets:
#	150
#	32302
#	53453
#	74621
#	89754
#	114468
#	131061
#	151670
#	175169
#	196649
#	214228
#	235462
#
# Disc length: 3380 seconds
# Revision: 5
# Processed by: cddbd v1.5.2PL0 Copyright (c) Steve Scherf et al.
# Submitted via: dBpowerAMP V12.0
#
DISCID=9e0d320c
DTITLE=Zucchero - Zu and Co.
DYEAR=2005
DGENRE=Blues
TTITLE0=Mama (with Stevie Ray Vaughan)
TTITLE1=Diamante (with Randy Crawford)
TTITLE2=I'm in trouble (with Tina Arena)
TTITLE3=Who will the next fool be? (with Mark Knopfler feat. Jools Holland, Scooty Moore, D.J. Fontana)
TTITLE4=Eres mi religion - Eri la mia religione (with Maná)
TTITLE5=Mama get real - remix english single (with Mousse T.)
TTITLE6=Io vivo (in te) - I'm ready (with Bryan Adams)
TTITLE7=Let the good times roll (with B. B. King)
TTITLE8=Un oceano di silenzi (with Sergio Mendes)
TTITLE9=Va, pensiero (with Sinéad O'Connor)
TTITLE10=Before you accuse me (with Buddy Guy)
TTITLE11=Un piccolo aiuto (with Eric Clapton)
EXTD=
EXTT0=
EXTT1=
EXTT2=
EXTT3=
EXTT4=
EXTT5=
EXTT6=
EXTT7=
EXTT8=
EXTT9=
EXTT10=
EXTT11=
PLAYORDER=
